<svg width="529" height="164" viewBox="0 0 529 164" fill="none" xmlns="http://www.w3.org/2000/svg">
<g clip-path="url(#clip0_1065_950)">
<path fill-rule="evenodd" clip-rule="evenodd" d="M55.8013 6.6783C52.7812 10.0612 50.9581 13.2953 49.9775 16.3247C48.2706 21.5998 48.9647 26.736 51.1237 31.7416C53.3098 36.8095 56.9474 41.6113 60.9003 45.9826C63.5294 48.8906 66.109 51.4162 68.4551 53.7126C69.7032 54.9353 70.8847 56.0923 71.9732 57.208C74.5094 59.7258 77.0808 62.0278 79.5013 64.1939C90.1244 73.6973 97.8288 80.59 86.7108 91.6851L78.9775 99.403C79.9615 100.395 81.0806 101.476 82.3197 102.672C82.757 103.094 83.2108 103.531 83.6766 103.984C85.6248 105.871 87.7632 107.977 89.8839 110.257C94.1004 114.79 98.406 120.172 101.111 126.19C103.147 130.718 104.305 135.679 103.8 140.911L105.65 139.064H105.658L129.828 114.945L134.352 110.429C150.196 94.6189 150.196 68.9866 134.352 53.1761L104.992 23.8766L87.6316 6.55232C78.8764 -2.18405 64.6825 -2.18413 55.9282 6.55224L55.8013 6.6783Z" fill="url(#paint0_linear_1065_950)"/>
<path fill-rule="evenodd" clip-rule="evenodd" d="M90.4332 154.236C93.4532 150.852 95.2768 147.618 96.2569 144.588C97.9635 139.314 97.2702 134.178 95.1116 129.172C92.9255 124.104 89.287 119.302 85.3346 114.931C82.7055 112.023 80.1259 109.497 77.7802 107.201C76.5321 105.979 75.3494 104.821 74.2613 103.705C71.7255 101.188 69.1545 98.8855 66.7331 96.7194C56.1106 87.2161 48.4057 80.3233 59.5237 69.2283L67.2574 61.5112C66.2734 60.5177 65.1539 59.4375 63.9144 58.242C63.4774 57.8204 63.0246 57.3823 62.5575 56.9304C60.6096 55.0423 58.4721 52.9366 56.3501 50.6561C52.1345 46.1241 47.8289 40.7413 45.1233 34.7244C43.0881 30.1954 41.9296 25.2342 42.4352 20.0027L40.5842 21.8498H40.5768L16.4074 45.9688L11.8822 50.4839C-3.96072 66.2944 -3.96072 91.9276 11.8822 107.737L41.2429 137.037L58.6037 154.362C67.358 163.097 81.552 163.098 90.3072 154.362L90.4332 154.236Z" fill="url(#paint1_linear_1065_950)"/>
<path d="M269.909 7.77119C269.909 6.68685 270.785 5.80777 271.866 5.80777H289.228C290.309 5.80777 291.184 6.68685 291.184 7.77119V119.555C291.184 120.639 290.309 121.518 289.228 121.518H271.866C270.785 121.518 269.909 120.639 269.909 119.555V7.77119Z" fill="#000219"/>
<path fill-rule="evenodd" clip-rule="evenodd" d="M171.648 82.7307C171.648 58.6106 188.539 41.8246 212.9 41.8246C237.098 41.8246 253.988 58.6106 253.988 82.7307C253.988 106.688 237.098 123.474 212.9 123.474C188.539 123.474 171.648 106.688 171.648 82.7307ZM192.923 82.7307C192.923 95.2797 201.044 104.08 212.9 104.08C224.593 104.08 232.713 95.2797 232.713 82.7307C232.713 70.0189 224.593 61.2182 212.9 61.2182C201.044 61.2182 192.923 70.0189 192.923 82.7307Z" fill="#000219"/>
<path d="M335.65 20.0019C335.65 27.1726 329.803 32.5507 322.657 32.5507C315.349 32.5507 309.665 27.1726 309.665 20.0019C309.665 12.6681 315.349 7.29001 322.657 7.29001C329.803 7.29001 335.65 12.6681 335.65 20.0019Z" fill="#000219"/>
<path d="M312.101 119.555C312.101 120.639 312.977 121.518 314.057 121.518H331.419C332.5 121.518 333.376 120.639 333.376 119.555V45.7439C333.376 44.6594 332.5 43.7802 331.419 43.7802H314.057C312.977 43.7802 312.101 44.6594 312.101 45.7439V119.555Z" fill="#000219"/>
<path fill-rule="evenodd" clip-rule="evenodd" d="M413.302 43.7802C412.221 43.7802 411.345 44.6594 411.345 45.7439V48.0175C405.336 44.1061 397.703 41.8246 389.095 41.8246C367.658 41.8246 350.442 57.4699 350.442 80.7752C350.442 100.821 367.658 118.259 389.095 118.259C397.703 118.259 405.336 115.977 411.345 112.066V118.08C411.345 130.792 403.387 137.637 392.993 137.637C382.729 137.637 376.113 132.71 374.447 125.342C374.228 124.372 373.406 123.621 372.414 123.621H354.68C353.536 123.621 352.631 124.606 352.791 125.743C355.397 144.172 371.557 157.03 392.993 157.03C416.055 157.03 432.619 142.363 432.619 118.08V45.7439C432.619 44.6594 431.746 43.7802 430.662 43.7802H413.302ZM388.983 99.5838C378.637 97.965 371.718 89.036 371.718 80.7752C371.718 68.3893 380.163 60.2407 392.343 60.2407C397.123 60.2407 406.346 62.7468 411.345 70.3344C413.14 73.2661 414.172 76.7356 414.172 80.5443C414.172 91.6915 404.928 100.052 393.628 100.052C392.025 100.052 390.471 99.8907 388.983 99.5838Z" fill="#000219"/>
<path fill-rule="evenodd" clip-rule="evenodd" d="M487.91 41.8246C463.55 41.8246 446.661 58.6106 446.661 82.7307C446.661 106.688 463.55 123.474 487.91 123.474C512.111 123.474 529 106.688 529 82.7307C529 58.6106 512.111 41.8246 487.91 41.8246ZM487.91 104.08C476.057 104.08 467.933 95.2797 467.933 82.7307C467.933 70.0189 476.057 61.2182 487.91 61.2182C499.604 61.2182 507.724 70.0189 507.724 82.7307C507.724 95.2797 499.604 104.08 487.91 104.08Z" fill="#000219"/>
</g>
<defs>
<linearGradient id="paint0_linear_1065_950" x1="61.1898" y1="16.6541" x2="138.036" y2="119.571" gradientUnits="userSpaceOnUse">
<stop stop-color="#182D82"/>
<stop offset="1" stop-color="#5726F4"/>
</linearGradient>
<linearGradient id="paint1_linear_1065_950" x1="12.1695" y1="36.6568" x2="80.4324" y2="160.805" gradientUnits="userSpaceOnUse">
<stop stop-color="#4668F0"/>
<stop offset="1" stop-color="#591EF4"/>
</linearGradient>
<clipPath id="clip0_1065_950">
<rect width="529" height="164" fill="white"/>
</clipPath>
</defs>
</svg>
